<svg width="40" height="40" viewBox="0 0 50 50" fill="none" xmlns="http://www.w3.org/2000/svg">
<g clip-path="url(#clip0_18_400)">
<path fill-rule="evenodd" clip-rule="evenodd" d="M25 0.616699C11.1938 0.616699 0 11.8084 0 25.6167C0 36.6625 7.1625 46.0334 17.0958 49.3396C18.3458 49.5709 18.8042 48.798 18.8042 48.1375C18.8042 47.5417 18.7813 45.573 18.7708 43.4834C11.8167 44.9959 10.3479 40.5334 10.3479 40.5334C9.21042 37.6438 7.57292 36.875 7.57292 36.875C5.30417 35.323 7.74375 35.3563 7.74375 35.3563C10.2542 35.5334 11.575 37.9334 11.575 37.9334C13.8042 41.7542 17.4229 40.65 18.85 40.0105C19.075 38.3938 19.7229 37.2917 20.4375 36.6667C14.8854 36.0355 9.04792 33.8917 9.04792 24.3125C9.04792 21.5834 10.025 19.3521 11.625 17.6021C11.3646 16.9709 10.5083 14.4292 11.8667 10.9854C11.8667 10.9854 13.9667 10.3146 18.7438 13.5479C20.7375 12.9938 22.875 12.7167 25 12.7063C27.125 12.7167 29.2646 12.9938 31.2625 13.5479C36.0333 10.3125 38.1313 10.9854 38.1313 10.9854C39.4917 14.4292 38.6354 16.9709 38.3771 17.6021C39.9792 19.3521 40.95 21.5834 40.95 24.3125C40.95 33.9146 35.1021 36.0292 29.5354 36.648C30.4313 37.423 31.2313 38.9459 31.2313 41.2771C31.2313 44.623 31.2021 47.3146 31.2021 48.1375C31.2021 48.8021 31.6521 49.5834 32.9188 49.3375C42.8479 46.0271 50.0021 36.6604 50.0021 25.6188C50 11.8104 38.8063 0.616699 25 0.616699Z" fill="#EF722B"/>
<path d="M9.4687 36.5125C9.41453 36.6375 9.2187 36.675 9.03953 36.5896C8.85828 36.5083 8.7562 36.3375 8.81453 36.2146C8.8687 36.0875 9.06453 36.0521 9.24578 36.1375C9.42703 36.2167 9.5312 36.3875 9.4687 36.5125Z" fill="#EF722B"/>
<path d="M10.4813 37.6417C10.3625 37.7521 10.1292 37.7 9.97088 37.5271C9.80629 37.3521 9.77713 37.1188 9.89796 37.0084C10.0209 36.898 10.2459 36.95 10.4105 37.125C10.575 37.2979 10.6063 37.5292 10.4813 37.6417Z" fill="#EF722B"/>
<path d="M11.4667 39.0812C11.3125 39.1875 11.0625 39.0875 10.9083 38.8667C10.7542 38.6437 10.7542 38.3771 10.9125 38.2708C11.0667 38.1646 11.3146 38.2604 11.4708 38.4812C11.6229 38.7062 11.6229 38.9729 11.4667 39.0812Z" fill="#EF722B"/>
<path d="M12.8167 40.4729C12.6792 40.625 12.3875 40.5833 12.175 40.3771C11.9563 40.175 11.8959 39.8896 12.0334 39.7375C12.1729 39.5854 12.4667 39.6292 12.6813 39.8333C12.8979 40.0354 12.9625 40.3229 12.8167 40.4729Z" fill="#EF722B"/>
<path d="M14.6813 41.2792C14.6209 41.4751 14.3396 41.5646 14.0563 41.4813C13.7729 41.3959 13.5875 41.1667 13.6459 40.9688C13.7042 40.7709 13.9875 40.6792 14.2729 40.7688C14.5542 40.8521 14.7396 41.0813 14.6813 41.2792Z" fill="#EF722B"/>
<path d="M16.7271 41.4292C16.7334 41.6355 16.4938 41.8063 16.1958 41.8105C15.8979 41.8167 15.6542 41.65 15.6521 41.448C15.6521 41.2396 15.8875 41.0709 16.1854 41.0646C16.4833 41.0584 16.7271 41.225 16.7271 41.4292Z" fill="#EF722B"/>
<path d="M18.6312 41.1063C18.6666 41.3063 18.4604 41.5146 18.1645 41.5688C17.875 41.623 17.6062 41.498 17.5687 41.298C17.5333 41.0917 17.7437 40.8855 18.0333 40.8313C18.327 40.7792 18.5937 40.9 18.6312 41.1063Z" fill="#EF722B"/>
</g>
<defs>
<clipPath id="clip0_18_400">
<rect width="50" height="50" fill="white"/>
</clipPath>
</defs>
</svg>
