<svg width="40" height="40" viewBox="0 0 50 50" fill="none" xmlns="http://www.w3.org/2000/svg">
<path d="M45.8333 7.23036V42.7695C45.8333 43.582 45.5106 44.3614 44.936 44.936C44.3614 45.5106 43.582 45.8333 42.7695 45.8333H7.23036C6.41779 45.8333 5.63852 45.5106 5.06398 44.936C4.48942 44.3614 4.16663 43.582 4.16663 42.7695V7.23036C4.16663 6.41779 4.48942 5.63852 5.06398 5.06398C5.63852 4.48942 6.41779 4.16663 7.23036 4.16663H42.7695C43.582 4.16663 44.3614 4.48942 44.936 5.06398C45.5106 5.63852 45.8333 6.41779 45.8333 7.23036ZM16.4215 20.098H10.2941V39.7058H16.4215V20.098ZM16.973 13.3578C16.9762 12.8943 16.8881 12.4347 16.7137 12.0053C16.5394 11.5758 16.2821 11.1849 15.9566 10.8549C15.6311 10.5249 15.2439 10.2622 14.8169 10.0819C14.3899 9.90156 13.9316 9.80708 13.4681 9.80388H13.3578C12.4153 9.80388 11.5113 10.1783 10.8448 10.8448C10.1783 11.5113 9.80388 12.4153 9.80388 13.3578C9.80388 14.3004 10.1783 15.2043 10.8448 15.8708C11.5113 16.5373 12.4153 16.9117 13.3578 16.9117C13.8213 16.9231 14.2826 16.8431 14.7151 16.6762C15.1477 16.5093 15.5432 16.2588 15.8789 15.939C16.2146 15.6192 16.4841 15.2363 16.6718 14.8124C16.8595 14.3884 16.9619 13.9316 16.973 13.4681V13.3578ZM39.7058 27.7941C39.7058 21.8995 35.9558 19.6078 32.2304 19.6078C31.0106 19.5467 29.796 19.8065 28.7081 20.3613C27.62 20.916 26.6964 21.7464 26.0293 22.7695H25.8579V20.098H20.098V39.7058H26.2254V29.2768C26.1368 28.2089 26.4733 27.1489 27.1616 26.3275C27.8502 25.506 28.8347 24.9893 29.9018 24.8897H30.1348C32.0833 24.8897 33.5293 26.1152 33.5293 29.2033V39.7058H39.6568L39.7058 27.7941Z" fill="#EF722B"/>
</svg>
