<svg width="40" height="40" viewBox="0 0 50 50" fill="none" xmlns="http://www.w3.org/2000/svg">
<g clip-path="url(#clip0_18_392)">
<path d="M39.5833 2.08337H10.4167C7.65501 2.08668 5.00741 3.18521 3.05462 5.138C1.10184 7.09079 0.00330804 9.73839 0 12.5L0 37.5C0.00330804 40.2617 1.10184 42.9093 3.05462 44.8621C5.00741 46.8149 7.65501 47.9134 10.4167 47.9167H39.5833C42.345 47.9134 44.9926 46.8149 46.9454 44.8621C48.8982 42.9093 49.9967 40.2617 50 37.5V12.5C49.9967 9.73839 48.8982 7.09079 46.9454 5.138C44.9926 3.18521 42.345 2.08668 39.5833 2.08337ZM10.4167 6.25004H39.5833C40.8308 6.25249 42.049 6.6282 43.0812 7.3288C44.1133 8.0294 44.9122 9.02285 45.375 10.1813L29.4208 26.1375C28.2467 27.3069 26.6571 27.9635 25 27.9635C23.3429 27.9635 21.7533 27.3069 20.5792 26.1375L4.625 10.1813C5.08781 9.02285 5.88669 8.0294 6.91885 7.3288C7.951 6.6282 9.1692 6.25249 10.4167 6.25004ZM39.5833 43.75H10.4167C8.75906 43.75 7.16935 43.0916 5.99725 41.9195C4.82515 40.7474 4.16667 39.1576 4.16667 37.5V15.625L17.6333 29.0834C19.5888 31.0339 22.238 32.1293 25 32.1293C27.762 32.1293 30.4112 31.0339 32.3667 29.0834L45.8333 15.625V37.5C45.8333 39.1576 45.1749 40.7474 44.0028 41.9195C42.8306 43.0916 41.2409 43.75 39.5833 43.75Z" fill="#EF722B"/>
</g>
<defs>
<clipPath id="clip0_18_392">
<rect width="50" height="50" fill="white"/>
</clipPath>
</defs>
</svg>
