<svg xmlns="http://www.w3.org/2000/svg" width="151" height="156" viewBox="0 0 151 156" fill="none">
  <g clip-path="url(#clip0_17_182)">
    <path fill-rule="evenodd" clip-rule="evenodd" d="M70.5189 1.60779C76.5738 -0.11975 83.0197 -0.123993 89.0829 1.60928C93.4316 2.84897 96.8329 4.93461 99.5135 6.86515C101.922 8.5998 104.549 10.8143 107.149 13.0076C107.264 13.1039 107.378 13.2002 107.492 13.2964C107.493 13.2971 107.493 13.2978 107.495 13.2984L144.919 44.8382C152.027 50.8281 152.747 61.2333 146.528 68.0788C140.309 74.9247 129.505 75.6183 122.398 69.6282L84.9678 38.0844C82.4692 35.978 80.936 34.6954 79.799 33.8187C78.6768 34.6841 77.1636 35.9485 74.7005 38.0216C74.6992 38.0228 74.6979 38.0239 74.6966 38.0251L37.211 69.6245C37.21 69.6251 37.209 69.6263 37.2081 69.6269C36.408 70.3019 35.7909 70.8221 35.2607 71.2783C34.9698 71.5282 34.7364 71.7326 34.5466 71.9011C34.5399 72.1472 34.5345 72.4467 34.5307 72.8159C34.5238 73.5008 34.5236 74.292 34.5236 75.3175V115.48C34.5236 119.103 34.5323 121.345 34.6111 122.958C36.2814 123.034 38.6028 123.042 42.3514 123.042H133.658C143.103 123.042 150.759 130.416 150.759 139.512C150.759 148.608 143.103 155.983 133.658 155.983H41.8243C37.9237 155.983 34.0374 155.984 30.73 155.723C27.0815 155.436 22.6589 154.751 18.1834 152.554C11.9932 149.528 7.01465 144.697 3.89328 138.81L3.878 138.78C1.60348 134.469 0.891025 130.213 0.591997 126.686C0.321621 123.499 0.322165 119.752 0.322712 115.988C0.322736 115.819 0.322761 115.649 0.322761 115.48V75.3175C0.322761 75.0447 0.321775 74.7619 0.320757 74.4698C0.310042 71.3933 0.295688 67.2726 1.38776 63.2583M70.5125 1.60976C66.1799 2.84493 62.7929 4.91731 60.12 6.83936C57.7288 8.55878 55.1238 10.7523 52.5504 12.9192C52.4301 13.0204 52.3099 13.1217 52.1897 13.2228L14.6805 44.842C14.4673 45.0218 14.2457 45.2075 14.0168 45.3992C11.6057 47.4191 8.39443 50.1093 5.98143 53.5277C5.98042 53.5291 5.9794 53.5306 5.97838 53.532C5.97736 53.5335 5.97634 53.5349 5.97532 53.5364C3.88306 56.5011 2.33176 59.7883 1.38832 63.2558M70.5189 1.60779C70.517 1.60845 70.5144 1.6091 70.5125 1.60976L70.5189 1.60779Z" fill="#A82800"/>
    <path fill-rule="evenodd" clip-rule="evenodd" d="M77.9154 41.2534C71.7773 42.1001 65.9851 45.0864 62.6602 47.5529L54.7845 37.7053C59.4186 34.2674 67.2421 30.1685 76.0859 28.9486C85.213 27.6896 95.6946 29.5208 104.144 38.4403L94.6093 46.8179C89.6353 41.5669 83.7695 40.4458 77.9154 41.2534Z" fill="#A82800"/>
    <path fill-rule="evenodd" clip-rule="evenodd" d="M45.8095 120.913C51.565 123.136 58.1315 123.339 62.2912 122.804L63.9994 135.125C58.2015 135.87 49.2981 135.652 41.0062 132.45C32.4482 129.145 24.3211 122.512 21.6349 110.718L34.2411 108.055C35.8225 114.997 40.3202 118.793 45.8095 120.913Z" fill="#A82800"/>
    <path fill-rule="evenodd" clip-rule="evenodd" d="M45.8095 120.913C51.565 123.136 58.1315 123.339 62.2912 122.804L63.9994 135.125C58.2015 135.87 49.2981 135.652 41.0062 132.45C32.4482 129.145 24.3211 122.512 21.6349 110.718L34.2411 108.055C35.8225 114.997 40.3202 118.793 45.8095 120.913Z" fill="#A82800"/>
    <path fill-rule="evenodd" clip-rule="evenodd" d="M36.712 79.1635C34.5543 84.846 34.5235 89.3955 34.5235 94.4701H21.6175C21.6175 94.4179 21.6175 94.3651 21.6175 94.3123C21.6173 89.1587 21.617 82.7273 24.5911 74.8943C27.5739 67.0384 33.3464 58.2379 44.0873 47.5698L53.3524 56.2232C43.4434 66.0651 38.8913 73.4238 36.712 79.1635Z" fill="#A82800"/>
  </g>
  <defs>
    <clipPath id="clip0_17_182">
      <rect width="151" height="156" fill="white"/>
    </clipPath>
  </defs>
</svg>